# xmcd
#
# Track frame offsets: 
#        182
#        14715
#        32095
#        49085
#        60887
#        76995
#        96200
#        111900
#        126410
#        145490
#        161207
#
# Disc length: 2364 seconds
#
# Revision: 3
# Processed by: cddbd v1.5.1PL0 Copyright (c) Steve Scherf et al.
# Submitted via: ExactAudioCopy v0.95a5
#
DISCID=98093a0b
DTITLE=Kris McKay - Things That Show
DYEAR=1996
DGENRE=Country
TTITLE0=Save It For Later
TTITLE1=Testing 1-2
TTITLE2=Tear-Stained Eye
TTITLE3=How Cool
TTITLE4=Weakness In Me
TTITLE5=Things That Show
TTITLE6=Baby You Scare Me
TTITLE7=Right Now
TTITLE8=Swinging Door
TTITLE9=Hitchhiker
TTITLE10=Loose Diamond
EXTD=
EXTT0=
EXTT1=
EXTT2=
EXTT3=
EXTT4=
EXTT5=
EXTT6=
EXTT7=
EXTT8=
EXTT9=
EXTT10=
PLAYORDER=
